<?xml version="1.0" encoding="UTF-8"?>
<svg id="_レイヤー_2" data-name="レイヤー 2" xmlns="http://www.w3.org/2000/svg" viewBox="0 0 207.76 42.3">
  <defs>
    <style>
      .cls-1 {
        fill: #ffc0c0;
      }

      .cls-1, .cls-2, .cls-3, .cls-4, .cls-5, .cls-6 {
        strokeWidth: 0px;
      }

      .cls-2 {
        fill: #fff;
      }

      .cls-3 {
        fill: #ffdfdf;
      }

      .cls-4 {
        fill: #ff8080;
      }

      .cls-5 {
        fill: #ffa0a0;
      }

      .cls-6 {
        fill: #f55;
      }
    </style>
  </defs>
  <g id="_レイヤー_1-2" data-name="レイヤー 1">
    <g>
      <g>
        <rect class="cls-6" width="42.3" height="42.3" rx="9.4" ry="9.4"/>
        <g>
          <circle class="cls-4" cx="28.11" cy="28.03" r="8.73"/>
          <circle class="cls-5" cx="24.63" cy="24.59" r="8.73"/>
          <circle class="cls-1" cx="21.15" cy="21.15" r="8.73"/>
          <circle class="cls-3" cx="17.67" cy="17.71" r="8.73"/>
          <circle class="cls-2" cx="14.19" cy="14.27" r="8.73"/>
        </g>
      </g>
      <g>
        <path class="cls-6" d="m51.63,10.25h3.88l2.99,13.22,3.7-13.22h3.28l3.75,13.22,2.96-13.22h3.88l-4.67,20.72h-3.78l-3.82-13.39-3.75,13.39h-3.75l-4.69-20.72Z"/>
        <path class="cls-6" d="m85.94,15.25c1.45,0,2.8.36,4.08,1.08,1.27.72,2.26,1.7,2.98,2.94s1.07,2.58,1.07,4.01-.36,2.8-1.08,4.06c-.72,1.26-1.7,2.24-2.94,2.95s-2.61,1.06-4.1,1.06c-2.2,0-4.07-.78-5.63-2.34-1.55-1.56-2.33-3.46-2.33-5.7,0-2.39.88-4.39,2.63-5.99,1.54-1.39,3.31-2.08,5.31-2.08Zm.06,3.62c-1.19,0-2.19.42-2.98,1.25s-1.19,1.89-1.19,3.19.39,2.41,1.18,3.24,1.78,1.24,2.98,1.24,2.21-.42,3-1.25c.8-.83,1.2-1.91,1.2-3.22s-.39-2.38-1.18-3.2c-.79-.82-1.79-1.23-3.01-1.23Z"/>
        <path class="cls-6" d="m96.3,15.64h3.3v1.93c.36-.76.83-1.34,1.42-1.73.59-.39,1.24-.59,1.94-.59.5,0,1.02.13,1.56.39l-1.2,3.31c-.45-.23-.82-.34-1.11-.34-.59,0-1.09.37-1.5,1.1-.41.73-.61,2.17-.61,4.31v.75s.01,6.2.01,6.2h-3.82v-15.32Z"/>
        <path class="cls-6" d="m106.46,9.73h3.84v12.23l5.66-6.32h4.83l-6.6,7.34,7.39,7.98h-4.77l-6.51-7.06v7.06h-3.84V9.73Z"/>
        <path class="cls-6" d="m132.54,17.78l-2.38,2.38c-.97-.96-1.84-1.44-2.63-1.44-.43,0-.77.09-1.01.27-.25.18-.37.41-.37.68,0,.21.08.4.23.57.15.17.54.41,1.15.71l1.41.7c1.48.73,2.5,1.48,3.06,2.24.55.76.83,1.65.83,2.68,0,1.36-.5,2.5-1.5,3.41s-2.34,1.37-4.02,1.37c-2.23,0-4.02-.87-5.35-2.62l2.37-2.58c.45.53.98.95,1.58,1.27.61.32,1.14.49,1.61.49.51,0,.92-.12,1.22-.37.31-.24.46-.53.46-.84,0-.59-.56-1.17-1.68-1.73l-1.3-.65c-2.48-1.25-3.72-2.81-3.72-4.69,0-1.21.47-2.25,1.4-3.11.93-.86,2.13-1.29,3.58-1.29,1,0,1.93.22,2.81.65s1.62,1.06,2.23,1.88Z"/>
        <path class="cls-6" d="m139.67,15.64v1.69c.69-.69,1.45-1.22,2.25-1.56s1.67-.52,2.59-.52c2,0,3.7.76,5.1,2.27,1.4,1.51,2.1,3.45,2.1,5.82s-.72,4.19-2.17,5.73-3.16,2.3-5.14,2.3c-.88,0-1.7-.16-2.46-.47-.76-.31-1.52-.83-2.27-1.54v7.23h-3.82V15.64h3.82Zm4.04,3.15c-1.21,0-2.22.41-3.01,1.24-.8.83-1.2,1.91-1.2,3.24s.4,2.46,1.2,3.3c.8.84,1.8,1.26,3.01,1.26s2.16-.43,2.96-1.28,1.2-1.94,1.2-3.27-.39-2.39-1.18-3.23-1.78-1.26-2.99-1.26Z"/>
        <path class="cls-6" d="m166.2,15.64h3.84v15.32h-3.84v-1.62c-.75.71-1.5,1.23-2.26,1.54s-1.57.47-2.46.47c-1.98,0-3.69-.77-5.13-2.3s-2.17-3.44-2.17-5.73.7-4.3,2.1-5.82c1.4-1.51,3.09-2.27,5.09-2.27.92,0,1.78.17,2.59.52s1.55.87,2.24,1.56v-1.69Zm-4.04,3.15c-1.19,0-2.18.42-2.96,1.26s-1.18,1.92-1.18,3.23.4,2.41,1.2,3.27c.8.85,1.78,1.28,2.95,1.28s2.21-.42,3-1.26c.8-.84,1.19-1.94,1.19-3.3s-.4-2.41-1.19-3.24c-.79-.83-1.8-1.24-3.02-1.24Z"/>
        <path class="cls-6" d="m188.93,18.74l-3.2,1.76c-.6-.63-1.2-1.07-1.78-1.31-.59-.24-1.28-.37-2.07-.37-1.44,0-2.6.43-3.49,1.29-.89.86-1.33,1.96-1.33,3.3s.43,2.37,1.28,3.19c.86.83,1.98,1.24,3.37,1.24,1.72,0,3.06-.59,4.02-1.76l3.03,2.08c-1.64,2.14-3.96,3.21-6.96,3.21-2.7,0-4.8-.8-6.33-2.39-1.53-1.6-2.29-3.46-2.29-5.61,0-1.48.37-2.85,1.11-4.1.74-1.25,1.78-2.23,3.11-2.94,1.33-.71,2.81-1.07,4.46-1.07,1.52,0,2.89.3,4.1.91,1.21.61,2.2,1.47,2.97,2.58Z"/>
        <path class="cls-6" d="m207.75,24.42h-12.35c.18,1.09.66,1.96,1.43,2.6.77.64,1.76.96,2.96.96,1.44,0,2.67-.5,3.7-1.51l3.24,1.52c-.81,1.15-1.78,1.99-2.9,2.54-1.13.55-2.46.82-4.01.82-2.4,0-4.36-.76-5.87-2.27-1.51-1.52-2.27-3.42-2.27-5.7s.75-4.28,2.26-5.82c1.51-1.54,3.4-2.32,5.67-2.32,2.41,0,4.38.77,5.89,2.32,1.51,1.54,2.27,3.58,2.27,6.12v.73Zm-3.84-3.03c-.25-.85-.75-1.55-1.5-2.08-.75-.54-1.62-.8-2.6-.8-1.07,0-2.01.3-2.82.9-.51.38-.98,1.04-1.41,1.99h8.34Z"/>
      </g>
    </g>
  </g>
</svg>