<?xml version="1.0" encoding="UTF-8"?>
<svg id="_レイヤー_2" data-name="レイヤー 2" xmlns="http://www.w3.org/2000/svg" viewBox="0 0 174.21 213.38">
  <defs>
    <style>
      .cls-1 {
        fill: #ffc0c0;
      }

      .cls-1, .cls-2, .cls-3, .cls-4, .cls-5, .cls-6 {
        stroke-width: 0px;
      }

      .cls-2 {
        fill: #fff;
      }

      .cls-3 {
        fill: #ffdfdf;
      }

      .cls-4 {
        fill: #ff8080;
      }

      .cls-5 {
        fill: #ffa0a0;
      }

      .cls-6 {
        fill: #f55;
      }
    </style>
  </defs>
  <g id="_レイヤー_1-2" data-name="レイヤー 1">
    <g>
      <g>
        <rect class="cls-6" width="174.21" height="174.21" rx="38.71" ry="38.71"/>
        <g>
          <circle class="cls-4" cx="115.76" cy="115.44" r="35.95"/>
          <circle class="cls-5" cx="101.43" cy="101.27" r="35.95"/>
          <circle class="cls-1" cx="87.1" cy="87.1" r="35.95"/>
          <circle class="cls-3" cx="72.77" cy="72.94" r="35.95"/>
          <circle class="cls-2" cx="58.44" cy="58.77" r="35.95"/>
        </g>
      </g>
      <g>
        <path class="cls-6" d="m17.59,189.99h3.45l2.66,11.75,3.29-11.75h2.91l3.33,11.75,2.63-11.75h3.45l-4.15,18.41h-3.36l-3.39-11.9-3.33,11.9h-3.33l-4.17-18.41Z"/>
        <path class="cls-6" d="m48.06,194.43c1.28,0,2.49.32,3.62.96,1.13.64,2.01,1.51,2.65,2.62.63,1.1.95,2.29.95,3.57s-.32,2.49-.96,3.6c-.64,1.12-1.51,1.99-2.61,2.62-1.1.63-2.31.95-3.64.95-1.95,0-3.62-.69-5-2.08-1.38-1.39-2.07-3.08-2.07-5.06,0-2.13.78-3.9,2.34-5.32,1.37-1.23,2.94-1.85,4.72-1.85Zm.06,3.22c-1.06,0-1.94.37-2.65,1.11s-1.06,1.68-1.06,2.83.35,2.14,1.05,2.88c.7.73,1.58,1.1,2.65,1.1s1.96-.37,2.67-1.11,1.07-1.7,1.07-2.87-.35-2.12-1.05-2.85c-.7-.73-1.59-1.09-2.68-1.09Z"/>
        <path class="cls-6" d="m57.27,194.78h2.93v1.71c.32-.68.74-1.19,1.26-1.54.53-.35,1.1-.53,1.73-.53.44,0,.9.12,1.39.35l-1.06,2.94c-.4-.2-.73-.3-.99-.3-.53,0-.97.33-1.33.98-.36.65-.54,1.93-.54,3.83v.66s.01,5.51.01,5.51h-3.39v-13.61Z"/>
        <path class="cls-6" d="m66.29,189.53h3.42v10.87l5.03-5.61h4.29l-5.86,6.53,6.57,7.09h-4.24l-5.78-6.27v6.27h-3.42v-18.87Z"/>
        <path class="cls-6" d="m89.47,196.68l-2.12,2.11c-.86-.85-1.64-1.28-2.34-1.28-.38,0-.68.08-.9.24-.22.16-.33.37-.33.61,0,.18.07.35.21.51s.48.36,1.02.63l1.25.62c1.32.65,2.22,1.31,2.71,1.99s.74,1.47.74,2.38c0,1.21-.44,2.22-1.33,3.03-.89.81-2.08,1.21-3.57,1.21-1.99,0-3.57-.78-4.75-2.33l2.1-2.29c.4.47.87.84,1.41,1.13.54.29,1.02.43,1.43.43.45,0,.81-.11,1.09-.33s.41-.47.41-.75c0-.53-.5-1.04-1.49-1.54l-1.15-.58c-2.2-1.11-3.3-2.5-3.3-4.17,0-1.08.42-2,1.25-2.76s1.89-1.14,3.18-1.14c.88,0,1.72.19,2.5.58.78.39,1.44.95,1.98,1.67Z"/>
        <path class="cls-6" d="m95.8,194.78v1.5c.62-.62,1.28-1.08,2-1.39.72-.31,1.48-.46,2.3-.46,1.78,0,3.29.67,4.53,2.01,1.24,1.34,1.86,3.07,1.86,5.17s-.64,3.72-1.93,5.09c-1.28,1.36-2.81,2.05-4.57,2.05-.78,0-1.51-.14-2.19-.42-.67-.28-1.35-.74-2.01-1.37v6.42h-3.39v-18.59h3.39Zm3.59,2.8c-1.08,0-1.97.37-2.68,1.1-.71.73-1.06,1.69-1.06,2.88s.35,2.19,1.06,2.93c.71.75,1.6,1.12,2.68,1.12s1.92-.38,2.63-1.14c.71-.76,1.07-1.73,1.07-2.9s-.35-2.12-1.05-2.87c-.7-.75-1.58-1.12-2.65-1.12Z"/>
        <path class="cls-6" d="m119.37,194.78h3.42v13.61h-3.42v-1.44c-.67.63-1.33,1.09-2.01,1.37-.67.28-1.4.42-2.18.42-1.76,0-3.28-.68-4.56-2.05-1.28-1.36-1.92-3.06-1.92-5.09s.62-3.82,1.86-5.17c1.24-1.34,2.75-2.01,4.52-2.01.82,0,1.58.15,2.3.46s1.38.77,1.99,1.39v-1.5Zm-3.59,2.8c-1.06,0-1.93.37-2.63,1.12-.7.75-1.05,1.7-1.05,2.87s.35,2.14,1.07,2.9c.71.76,1.59,1.14,2.63,1.14s1.96-.37,2.67-1.12c.71-.75,1.06-1.72,1.06-2.93s-.35-2.14-1.06-2.88c-.71-.73-1.6-1.1-2.68-1.1Z"/>
        <path class="cls-6" d="m139.57,197.53l-2.84,1.56c-.53-.56-1.06-.95-1.58-1.16-.52-.22-1.13-.33-1.83-.33-1.28,0-2.31.38-3.1,1.14-.79.76-1.18,1.74-1.18,2.93s.38,2.1,1.14,2.84c.76.73,1.76,1.1,2.99,1.1,1.53,0,2.72-.52,3.57-1.56l2.69,1.84c-1.46,1.9-3.52,2.85-6.18,2.85-2.39,0-4.27-.71-5.62-2.13-1.36-1.42-2.03-3.08-2.03-4.98,0-1.32.33-2.53.99-3.64.66-1.11,1.58-1.98,2.76-2.62,1.18-.63,2.5-.95,3.96-.95,1.35,0,2.57.27,3.64.81,1.08.54,1.96,1.3,2.64,2.3Z"/>
        <path class="cls-6" d="m156.29,202.58h-10.97c.16.97.58,1.74,1.27,2.31s1.57.86,2.63.86c1.28,0,2.37-.45,3.29-1.34l2.88,1.35c-.72,1.02-1.58,1.77-2.58,2.26s-2.19.73-3.57.73c-2.14,0-3.88-.67-5.22-2.02-1.34-1.35-2.01-3.03-2.01-5.06s.67-3.8,2.01-5.17c1.34-1.37,3.02-2.06,5.04-2.06,2.14,0,3.89.69,5.23,2.06,1.34,1.37,2.01,3.18,2.01,5.44v.65Zm-3.42-2.69c-.23-.76-.67-1.38-1.33-1.85-.66-.48-1.43-.71-2.31-.71-.95,0-1.79.27-2.51.8-.45.33-.87.92-1.25,1.76h7.41Z"/>
      </g>
    </g>
  </g>
</svg>